<?xml version="1.0" standalone="no"?>
<!DOCTYPE svg PUBLIC "-//W3C//DTD SVG 20010904//EN"
 "http://www.w3.org/TR/2001/REC-SVG-20010904/DTD/svg10.dtd">
<svg version="1.0" xmlns="http://www.w3.org/2000/svg"
 width="600.000000pt" height="400.000000pt" viewBox="0 0 600.000000 400.000000"
 preserveAspectRatio="xMidYMid meet">

<g transform="translate(0.000000,400.000000) scale(0.100000,-0.100000)"
fill="#000000" stroke="none">
<path d="M0 2000 l0 -2000 3000 0 3000 0 0 2000 0 2000 -3000 0 -3000 0 0
-2000z m3171 1413 c96 -58 206 -125 244 -148 39 -23 165 -100 280 -170 116
-70 253 -154 305 -185 52 -31 167 -101 255 -155 88 -54 203 -124 255 -155 52
-31 156 -94 230 -140 74 -46 147 -90 162 -99 14 -9 130 -79 257 -156 127 -77
253 -153 281 -170 27 -16 50 -32 50 -35 0 -3 -21 -17 -48 -33 -26 -15 -146
-88 -267 -162 -121 -74 -305 -187 -410 -250 -104 -64 -197 -120 -205 -125 -94
-58 -322 -196 -345 -210 -16 -9 -113 -68 -215 -130 -102 -62 -225 -137 -275
-167 -49 -30 -130 -79 -180 -110 -49 -31 -114 -70 -143 -87 -29 -17 -128 -77
-222 -133 -93 -57 -174 -103 -181 -103 -6 0 -66 33 -133 74 -148 90 -400 243
-601 365 -82 51 -277 169 -433 264 -156 95 -331 201 -390 237 -59 36 -174 106
-257 156 -82 50 -244 149 -360 219 -116 71 -234 142 -262 159 -29 17 -53 33
-53 36 0 3 46 33 103 66 56 34 152 92 212 129 61 37 153 93 205 125 52 31 127
77 165 100 39 24 153 94 255 155 165 100 380 231 570 348 36 22 79 47 95 57
17 10 91 55 165 100 74 45 161 98 193 117 31 19 55 38 52 43 -3 6 0 8 7 5 9
-4 413 235 464 274 1 1 80 -47 175 -106z"/>
<path d="M2846 2989 c-321 -47 -607 -236 -766 -508 l-31 -54 80 7 c133 12 429
7 561 -8 465 -56 902 -224 1273 -490 l76 -54 7 56 c9 72 -10 242 -38 330 -115
376 -439 652 -839 717 -101 16 -228 18 -323 4z m505 -619 c20 0 26 -15 9 -25
-5 -3 -10 -15 -10 -27 0 -17 -2 -18 -15 -8 -12 10 -18 10 -31 -1 -14 -11 -15
-10 -12 7 1 12 -3 28 -11 37 -12 15 -11 17 7 17 11 0 23 8 27 18 8 16 8 16 12
0 3 -10 13 -18 24 -18z"/>
<path d="M2340 2375 c0 -38 3 -45 19 -45 36 0 51 12 51 39 0 33 -17 51 -47 51
-21 0 -23 -5 -23 -45z m55 -5 c0 -16 -6 -26 -17 -28 -14 -3 -18 3 -18 28 0 25
4 31 18 28 11 -2 17 -12 17 -28z"/>
<path d="M2096 2389 c-21 -30 -6 -63 29 -67 16 -2 32 2 36 10 15 23 10 57 -10
68 -28 15 -38 13 -55 -11z m62 -32 c-2 -16 -10 -22 -28 -22 -28 0 -39 27 -20
50 18 21 52 1 48 -28z"/>
<path d="M2221 2363 c1 -26 4 -38 6 -25 5 25 43 32 43 7 0 -8 4 -15 9 -15 6 0
9 17 8 38 -3 34 -6 37 -35 40 l-32 3 1 -48z m47 25 c-7 -19 -38 -22 -38 -4 0
10 9 16 21 16 12 0 19 -5 17 -12z"/>
<path d="M2460 2371 c0 -35 3 -39 30 -43 17 -3 30 -1 30 3 0 4 -10 9 -22 11
-13 2 -21 8 -18 13 3 6 13 9 23 8 9 -2 17 2 17 7 0 6 -9 10 -20 10 -30 0 -24
18 8 23 22 3 20 4 -10 6 -38 1 -38 1 -38 -38z"/>
<path d="M2574 2376 c-3 -19 -4 -41 -1 -48 3 -7 6 -1 6 15 1 34 21 36 21 2 0
-35 18 -31 36 8 l15 32 -5 -37 c-3 -21 -1 -38 5 -38 5 0 9 13 9 29 0 16 3 36
6 45 12 31 -22 16 -38 -16 l-15 -33 -7 38 c-9 46 -23 48 -32 3z"/>
<path d="M2825 2334 c-7 -40 4 -54 40 -53 16 0 15 3 -8 13 -30 13 -26 26 7 27
20 0 20 1 -1 11 -34 16 -28 31 10 23 24 -5 28 -4 17 4 -8 6 -25 11 -36 11 -17
0 -23 -8 -29 -36z"/>
<path d="M3046 2296 c-3 -13 -9 -31 -12 -40 -3 -9 -1 -16 5 -16 6 0 11 7 11
15 0 11 8 15 28 13 23 -3 27 1 27 22 0 20 -6 26 -26 28 -21 2 -28 -2 -33 -22z
m52 -3 c2 -8 -5 -13 -17 -13 -12 0 -21 6 -21 16 0 18 31 15 38 -3z"/>
<path d="M2190 2300 c-58 -4 -126 -11 -152 -15 -53 -8 -53 -7 -79 -143 -17
-89 -6 -288 20 -381 72 -249 206 -434 417 -576 571 -385 1374 -133 1598 503
l14 38 -59 47 c-158 127 -463 297 -664 370 -241 88 -489 140 -745 157 -159 11
-194 10 -350 0z m-4 -120 c18 -1 18 -1 1 -14 -9 -7 -15 -20 -12 -28 4 -10 -3
-14 -29 -14 -24 0 -32 4 -29 13 3 7 0 20 -7 28 -10 12 -9 15 4 15 9 0 19 7 23
16 6 16 7 16 18 0 7 -9 21 -16 31 -16z m1087 -130 c-5 -21 -51 -22 -55 -2 -2
9 4 24 12 32 13 13 17 13 31 0 8 -8 14 -22 12 -30z m-669 -66 c3 -8 10 -12 16
-9 5 3 10 2 10 -4 0 -5 -4 -12 -10 -16 -5 -3 -7 -11 -4 -18 3 -8 -6 -12 -26
-12 -20 0 -29 4 -26 12 3 7 1 15 -4 18 -6 4 -10 11 -10 16 0 6 5 7 10 4 6 -3
13 1 16 9 3 9 10 16 14 16 4 0 11 -7 14 -16z m436 -144 c10 0 10 -3 0 -15 -6
-8 -9 -18 -6 -23 3 -5 -7 -9 -22 -9 -20 0 -31 8 -39 24 -10 20 -9 23 8 23 11
0 19 7 19 18 1 16 1 16 14 0 7 -10 19 -18 26 -18z m-694 -34 c2 -15 -27 -16
-38 -1 -11 15 -10 27 2 20 6 -3 10 -1 10 6 0 17 23 -5 26 -25z m-85 -36 c21 0
26 -15 8 -26 -6 -3 -9 -15 -6 -25 4 -16 2 -17 -15 -8 -14 8 -23 7 -35 -2 -13
-11 -14 -10 -11 7 1 12 -3 28 -11 37 -12 15 -11 17 7 17 11 0 23 8 27 18 8 16
8 16 12 0 3 -10 13 -18 24 -18z m871 -45 c-2 -14 -12 -20 -31 -21 -23 -1 -27
3 -24 18 3 10 0 18 -7 18 -7 0 -2 8 10 18 21 17 25 17 40 3 8 -9 14 -25 12
-36z m-245 15 c12 0 13 -3 4 -13 -6 -8 -8 -17 -4 -20 3 -4 -5 -7 -20 -7 -16 0
-27 6 -29 18 -4 18 25 48 30 31 2 -5 11 -9 19 -9z m-741 -60 c16 0 19 -16 4
-25 -5 -3 -6 -13 -3 -23 5 -14 3 -15 -7 -5 -9 8 -19 9 -31 3 -14 -8 -16 -6
-12 10 3 11 0 20 -6 20 -6 0 -11 3 -11 8 0 10 44 29 48 20 2 -5 10 -8 18 -8z
m329 -10 c10 0 11 -5 2 -24 -7 -13 -20 -23 -32 -23 -12 0 -25 10 -32 23 -9 19
-8 24 3 24 8 0 17 7 21 16 5 15 7 15 15 0 5 -9 15 -16 23 -16z m481 -4 c1 -9
-6 -14 -17 -13 -18 1 -26 27 -12 41 8 8 26 -9 29 -28z m809 4 c17 0 20 -16 5
-25 -6 -4 -8 -16 -4 -28 6 -20 5 -20 -10 -8 -15 12 -21 13 -38 2 -19 -12 -20
-11 -15 8 3 12 1 24 -4 27 -14 9 -10 24 6 24 9 0 18 7 22 16 5 15 7 15 15 0 5
-9 16 -16 23 -16z m148 -40 c-2 -8 -15 -16 -28 -16 -14 -1 -23 2 -20 6 3 5 1
11 -4 15 -6 3 -3 13 7 23 15 15 19 15 33 2 8 -8 14 -22 12 -30z m-102 -78 c-6
-2 -11 -13 -11 -25 0 -16 -3 -18 -12 -9 -8 8 -15 9 -25 1 -10 -9 -13 -8 -13 4
0 8 -3 22 -6 31 -4 11 -1 16 10 16 9 0 16 5 16 10 0 6 12 3 26 -7 15 -9 22
-19 15 -21z m-1378 -12 c-3 -11 -14 -17 -29 -17 -14 0 -22 2 -20 5 3 3 1 11
-5 19 -9 10 -8 13 5 13 9 0 16 5 16 10 0 6 7 6 19 -1 10 -7 16 -20 14 -29z
m604 10 c13 0 13 -3 3 -15 -7 -8 -10 -21 -7 -28 4 -10 -5 -13 -29 -13 -24 1
-34 6 -34 17 0 8 -5 20 -12 27 -9 9 -7 12 9 12 11 0 24 8 28 18 6 16 7 16 16
0 6 -10 17 -18 26 -18z m721 -77 c-6 -7 -8 -20 -4 -28 4 -12 2 -13 -13 -6 -12
7 -22 6 -29 -1 -9 -9 -12 -7 -12 8 0 11 -5 25 -12 32 -9 9 -7 12 10 12 12 0
22 4 22 9 0 5 11 4 24 -2 18 -9 22 -15 14 -24z m-1188 8 c0 -5 10 -12 23 -15
19 -6 20 -8 7 -19 -9 -6 -14 -21 -12 -32 4 -17 2 -18 -12 -6 -13 11 -20 11
-28 3 -17 -17 -28 -15 -22 3 4 8 1 22 -6 30 -11 14 -7 19 13 16 4 -1 10 6 13
14 7 16 24 21 24 6z m673 -59 c-2 -9 -15 -18 -28 -18 -16 -1 -22 2 -18 12 3 8
0 14 -6 14 -6 0 -3 8 7 18 15 16 19 17 33 5 9 -8 15 -22 12 -31z m307 2 c-6
-6 -7 -13 -4 -16 2 -3 -6 -5 -20 -5 -29 0 -39 26 -17 43 19 15 55 -4 41 -22z
m103 -4 c-3 -11 -14 -17 -29 -17 -14 0 -22 2 -20 5 3 3 1 11 -5 19 -9 10 -8
13 5 13 9 0 16 5 16 10 0 6 7 6 19 -1 10 -7 16 -20 14 -29z m-243 10 c0 -5 7
-10 15 -10 13 0 13 -3 3 -20 -7 -11 -20 -20 -28 -20 -8 0 -21 9 -28 20 -10 17
-10 20 3 20 8 0 15 5 15 10 0 6 5 10 10 10 6 0 10 -4 10 -10z m146 -107 c-6
-13 -16 -21 -22 -19 -6 3 -17 -1 -23 -7 -8 -8 -11 -6 -11 9 0 11 -5 25 -12 32
-9 9 -7 12 10 12 12 0 22 4 22 9 0 5 10 4 23 -2 20 -9 22 -14 13 -34z m-218
-4 c10 0 12 -3 5 -6 -7 -2 -13 -12 -13 -21 0 -11 -8 -17 -25 -17 -17 0 -25 6
-25 18 0 9 -6 17 -12 18 -7 0 -3 4 10 9 12 5 22 15 22 22 0 8 5 6 11 -4 5 -10
18 -18 27 -19z m212 -95 c-6 -6 -7 -13 -4 -16 2 -3 -6 -5 -20 -5 -15 0 -26 6
-29 18 -3 12 0 19 9 19 8 0 14 5 14 10 0 6 8 5 19 -2 13 -8 17 -16 11 -24z
m-530 -25 c0 -5 -7 -9 -15 -9 -15 0 -20 12 -9 23 8 8 24 -1 24 -14z"/>
<path d="M3152 2257 c-16 -44 -15 -56 3 -33 16 21 50 14 41 -9 -3 -8 -1 -17 4
-20 6 -4 10 3 10 15 0 12 5 30 10 40 8 15 6 21 -9 30 -33 17 -46 12 -59 -23z
m47 14 c7 -5 11 -14 7 -19 -9 -15 -36 -4 -36 14 0 16 9 18 29 5z"/>
<path d="M3272 2238 c-17 -17 -15 -65 4 -72 35 -13 74 7 74 39 0 35 -53 58
-78 33z m56 -24 c2 -11 -4 -27 -13 -34 -13 -11 -19 -11 -31 2 -13 13 -14 20
-4 37 14 27 44 24 48 -5z"/>
<path d="M3392 2188 c-7 -7 -12 -24 -12 -39 0 -21 7 -29 30 -37 25 -9 31 -8
40 8 14 27 13 30 -12 30 -17 0 -19 -3 -9 -9 10 -6 10 -10 1 -16 -7 -4 -19 -1
-27 8 -12 11 -13 19 -4 36 14 24 39 28 47 6 4 -8 10 -15 15 -15 6 0 5 9 -1 20
-12 22 -49 27 -68 8z"/>
<path d="M3503 2119 c-12 -21 -18 -41 -13 -44 4 -3 10 2 14 10 10 26 36 17 37
-12 l1 -28 11 28 c6 15 14 27 19 27 19 0 6 31 -20 44 -27 14 -28 13 -49 -25z
m54 6 c3 -9 3 -18 1 -21 -9 -9 -38 8 -38 22 0 19 29 18 37 -1z"/>
<path d="M3606 2064 c-9 -20 -16 -37 -14 -38 2 0 13 -7 25 -13 33 -19 42 -15
14 6 -14 11 -21 23 -17 30 6 9 11 9 22 0 8 -6 17 -9 21 -6 3 4 -2 9 -11 13
-29 11 -17 26 17 19 l32 -6 -25 15 c-37 22 -44 20 -64 -20z"/>
<path d="M3715 2029 c-4 -5 0 -18 9 -28 18 -19 21 -41 7 -41 -6 0 -17 10 -25
22 -13 18 -16 19 -16 6 0 -21 33 -40 54 -32 20 8 20 14 0 42 -19 27 -9 45 10
19 18 -23 29 -22 16 3 -11 21 -45 27 -55 9z"/>
<path d="M3813 1965 c-3 -9 2 -24 11 -34 9 -10 13 -20 10 -24 -10 -10 -34 4
-35 22 0 10 -2 12 -6 3 -6 -16 15 -42 34 -42 22 0 27 29 9 49 -13 14 -14 21
-5 27 7 4 18 -1 26 -11 7 -11 13 -14 13 -9 0 30 -46 45 -57 19z"/>
<path d="M3897 1892 c-22 -24 -21 -35 2 -56 24 -22 54 -14 69 18 9 20 7 27 -7
40 -23 21 -44 20 -64 -2z m58 -2 c3 -6 3 -19 0 -30 -8 -26 -55 -28 -55 -2 0
33 40 56 55 32z"/>
</g>
</svg>
