<?xml version="1.0" standalone="no"?>
<!DOCTYPE svg PUBLIC "-//W3C//DTD SVG 20010904//EN"
 "http://www.w3.org/TR/2001/REC-SVG-20010904/DTD/svg10.dtd">
<svg version="1.0" xmlns="http://www.w3.org/2000/svg"
 width="600.000000pt" height="369.000000pt" viewBox="0 0 600.000000 369.000000"
 preserveAspectRatio="xMidYMid meet">

<g transform="translate(0.000000,369.000000) scale(0.100000,-0.100000)"
fill="#000000" stroke="none">
<path d="M0 2700 l0 -990 3000 0 3000 0 0 135 0 135 -1740 0 -1740 0 0 145 0
145 1740 0 1740 0 0 140 0 140 -1740 0 -1740 0 0 145 0 145 1740 0 1740 0 0
140 0 140 -1740 0 -1740 0 0 145 0 145 1740 0 1740 0 0 140 0 140 -3000 0
-3000 0 0 -990z m282 843 l29 -6 -20 -21 c-13 -14 -18 -29 -14 -44 6 -25 1
-27 -28 -12 -13 8 -25 7 -39 0 -18 -9 -20 -8 -20 16 0 15 -7 35 -15 45 -15 15
-14 17 9 23 14 3 31 16 37 28 l12 23 10 -23 c6 -14 23 -26 39 -29z m405 1 c27
-7 29 -17 8 -34 -10 -8 -13 -21 -8 -38 5 -22 4 -24 -13 -17 -23 10 -44 10 -65
1 -13 -6 -16 -2 -11 19 3 16 -2 33 -13 45 -17 19 -17 20 3 20 12 0 29 12 39
26 17 27 17 27 27 5 5 -12 20 -24 33 -27z m425 -4 c20 0 20 -1 5 -18 -10 -10
-17 -30 -17 -45 0 -25 -2 -26 -25 -15 -19 9 -28 9 -37 0 -19 -19 -28 -14 -28
15 0 14 -7 34 -16 44 -14 16 -13 18 15 24 18 4 33 15 37 28 6 20 7 20 26 -6
11 -15 29 -27 40 -27z m434 0 c16 0 16 -1 -1 -20 -11 -12 -16 -29 -13 -45 5
-21 2 -25 -11 -19 -21 9 -42 9 -65 -1 -16 -7 -18 -5 -13 15 3 13 -1 32 -9 45
-14 21 -13 23 10 29 14 3 28 15 31 27 7 20 7 19 30 -5 13 -15 32 -26 41 -26z
m406 0 c20 0 20 -1 3 -20 -11 -12 -16 -29 -13 -45 5 -21 2 -25 -11 -19 -21 9
-42 9 -65 -1 -17 -7 -18 -5 -13 17 5 17 2 30 -8 38 -21 18 -19 27 9 34 14 3
28 16 32 28 6 22 7 21 26 -5 11 -15 29 -27 40 -27z m405 4 c26 -7 29 -17 9
-33 -8 -7 -11 -22 -8 -38 4 -23 2 -25 -14 -18 -23 10 -44 10 -65 1 -13 -6 -16
-2 -11 19 3 16 -2 33 -13 45 -17 19 -17 20 3 20 12 0 29 12 39 26 17 27 17 27
27 5 5 -12 20 -24 33 -27z m-1897 -196 c0 -4 11 -8 25 -8 27 0 34 -17 10 -26
-9 -4 -15 -19 -15 -36 0 -25 -3 -29 -17 -23 -10 4 -22 7 -28 7 -5 0 -18 -3
-27 -7 -15 -6 -18 -2 -18 23 0 17 -4 34 -10 37 -17 10 -11 25 10 25 12 0 25
10 32 26 11 24 13 25 25 8 7 -10 13 -21 13 -26z m447 -8 c26 0 26 0 7 -21 -11
-12 -17 -32 -16 -46 3 -22 1 -25 -15 -18 -23 9 -33 9 -55 0 -15 -6 -18 -2 -18
21 0 15 -7 36 -17 46 -15 17 -15 18 11 18 19 0 30 7 38 26 l12 25 13 -25 c9
-18 22 -26 40 -26z m840 0 c26 0 26 0 7 -21 -11 -12 -17 -32 -16 -46 3 -22 1
-25 -15 -18 -23 9 -33 9 -55 0 -15 -6 -18 -2 -18 21 0 15 -7 36 -17 46 -15 17
-15 18 11 18 19 0 30 7 38 26 l12 25 13 -25 c9 -18 22 -26 40 -26z m-460 20
c3 -13 14 -20 29 -20 28 0 31 -12 8 -31 -10 -8 -13 -21 -9 -37 5 -21 3 -23
-12 -17 -21 9 -31 9 -59 0 -19 -6 -21 -3 -17 17 3 15 -2 29 -11 37 -23 19 -20
31 8 31 16 0 27 7 31 20 3 11 11 20 17 20 5 0 12 -9 15 -20z m882 -20 c24 0
28 -18 6 -26 -9 -4 -15 -19 -15 -36 0 -25 -3 -29 -17 -23 -10 4 -22 7 -28 7
-5 0 -18 -3 -27 -7 -15 -6 -18 -2 -18 23 0 17 -4 34 -10 37 -17 10 -11 25 10
25 10 0 25 10 31 22 l12 22 17 -22 c10 -12 28 -22 39 -22z m-1889 -210 c24 0
26 -13 5 -30 -10 -8 -13 -21 -8 -38 5 -22 4 -24 -13 -17 -22 9 -31 9 -60 0
-19 -6 -21 -4 -16 20 3 19 0 30 -12 37 -23 13 -20 28 7 28 16 0 28 9 36 27
l13 28 14 -28 c9 -15 23 -27 34 -27z m410 0 c24 0 26 -13 4 -31 -10 -8 -13
-21 -9 -37 5 -21 3 -23 -12 -17 -21 9 -31 9 -59 0 -19 -6 -21 -3 -17 17 3 15
-2 29 -11 37 -23 19 -20 31 7 31 16 0 28 9 36 27 l13 28 14 -28 c9 -15 23 -27
34 -27z m417 0 c25 0 25 -1 10 -18 -10 -10 -17 -31 -17 -46 0 -23 -3 -27 -17
-21 -10 4 -22 7 -28 7 -5 0 -18 -3 -27 -7 -15 -6 -18 -2 -18 21 0 15 -7 36
-17 46 -15 17 -15 18 11 18 19 0 30 7 38 26 l12 25 13 -25 c9 -18 22 -26 40
-26z m813 8 c0 -4 11 -8 25 -8 28 0 32 -12 10 -30 -8 -7 -15 -24 -15 -37 0
-20 -4 -24 -17 -18 -23 9 -33 9 -57 0 -17 -7 -18 -5 -13 16 4 16 0 30 -15 46
l-21 23 26 0 c20 0 31 7 39 26 11 24 13 25 25 8 7 -10 13 -21 13 -26z m-415
12 c4 -13 15 -20 31 -20 28 0 30 -6 9 -26 -8 -9 -15 -27 -15 -41 0 -20 -4 -24
-17 -18 -23 9 -33 9 -57 0 -17 -7 -18 -5 -13 17 5 17 2 30 -8 38 -21 17 -19
30 5 30 10 0 24 9 30 20 6 11 15 20 20 20 5 0 12 -9 15 -20z m825 0 c6 -11 20
-20 30 -20 24 0 26 -13 5 -30 -9 -8 -13 -21 -9 -36 5 -18 2 -24 -9 -24 -9 0
-19 5 -22 10 -4 7 -12 7 -25 0 -29 -15 -38 -12 -33 13 3 14 -2 29 -11 36 -23
19 -20 31 8 31 16 0 27 7 31 20 3 11 10 20 15 20 5 0 14 -9 20 -20z m-1880
-200 c6 -11 20 -20 30 -20 24 0 26 -13 4 -31 -10 -8 -13 -21 -9 -37 5 -21 3
-23 -12 -17 -21 9 -31 9 -59 0 -19 -6 -21 -3 -17 17 3 15 -2 29 -11 37 -23 19
-20 31 8 31 16 0 27 7 31 20 3 11 10 20 15 20 5 0 14 -9 20 -20z m415 0 c4
-13 15 -20 31 -20 28 0 31 -12 8 -31 -9 -7 -14 -22 -11 -36 5 -25 -4 -28 -33
-13 -13 7 -21 7 -25 0 -3 -5 -13 -10 -21 -10 -10 0 -13 7 -9 23 4 15 1 28 -9
36 -23 19 -20 31 8 31 16 0 27 7 31 20 3 11 10 20 15 20 5 0 12 -9 15 -20z
m425 0 c6 -11 20 -20 30 -20 24 0 26 -13 4 -31 -10 -8 -13 -21 -9 -36 4 -16 1
-23 -9 -23 -8 0 -18 5 -21 10 -4 7 -12 7 -25 0 -29 -15 -38 -12 -33 13 3 14
-2 29 -11 36 -23 19 -20 31 8 31 16 0 27 7 31 20 3 11 10 20 15 20 5 0 14 -9
20 -20z m415 0 c4 -13 15 -20 31 -20 28 0 31 -12 8 -31 -9 -7 -14 -22 -11 -36
5 -25 -4 -28 -33 -13 -13 7 -21 7 -25 0 -3 -5 -13 -10 -21 -10 -10 0 -13 7 -9
23 4 15 1 28 -9 36 -23 19 -20 31 8 31 16 0 27 7 31 20 3 11 10 20 15 20 5 0
12 -9 15 -20z m422 0 c3 -13 14 -20 29 -20 27 0 31 -12 9 -30 -10 -8 -13 -21
-8 -38 5 -22 4 -24 -13 -17 -22 9 -31 9 -60 0 -19 -6 -21 -3 -17 17 3 15 -2
29 -11 37 -23 19 -20 31 8 31 16 0 27 7 31 20 3 11 11 20 17 20 5 0 12 -9 15
-20z m-1847 -220 c24 0 26 -13 5 -30 -10 -8 -13 -21 -8 -38 5 -22 4 -24 -13
-17 -23 10 -44 10 -65 1 -13 -6 -16 -2 -12 17 3 14 -2 30 -11 40 -21 21 -20
27 4 27 11 0 27 12 37 26 l16 26 14 -26 c8 -15 22 -26 33 -26z m410 0 c24 0
26 -13 4 -31 -10 -8 -13 -21 -9 -37 5 -21 3 -23 -12 -17 -22 10 -43 10 -64 1
-13 -6 -16 -2 -12 17 3 14 -2 29 -11 36 -22 18 -20 31 4 31 11 0 27 12 37 26
l16 26 14 -26 c8 -15 22 -26 33 -26z m380 25 c7 -18 17 -25 36 -25 26 0 26 -1
11 -18 -10 -10 -17 -31 -17 -46 0 -23 -3 -27 -17 -21 -10 4 -22 7 -28 7 -5 0
-18 -3 -27 -7 -15 -6 -18 -2 -18 21 0 15 -7 36 -17 46 -15 17 -15 18 11 18 19
0 30 7 38 25 6 14 13 25 15 25 2 0 8 -11 13 -25z m440 -17 c0 -4 11 -8 25 -8
29 0 32 -12 9 -31 -9 -7 -14 -22 -11 -36 4 -24 -11 -31 -30 -12 -8 8 -17 8
-31 0 -30 -16 -35 -14 -29 11 4 15 -1 30 -15 45 l-21 23 26 0 c20 0 31 7 39
26 11 24 13 25 25 8 7 -10 13 -21 13 -26z m410 0 c0 -4 11 -8 25 -8 27 0 34
-15 10 -24 -9 -3 -15 -18 -15 -37 0 -26 -3 -30 -17 -24 -23 9 -33 9 -57 0 -17
-7 -18 -5 -13 16 4 16 0 30 -15 46 l-21 23 26 0 c20 0 31 7 39 26 11 24 13 25
25 8 7 -10 13 -21 13 -26z m440 -8 c24 0 26 -13 5 -30 -10 -8 -13 -21 -8 -38
5 -22 4 -24 -13 -17 -23 10 -44 10 -65 1 -13 -6 -16 -2 -11 20 3 18 0 29 -12
36 -23 13 -20 28 7 28 16 0 28 9 36 27 l13 28 14 -28 c9 -15 23 -27 34 -27z
m-1879 -200 c25 0 32 -15 14 -30 -8 -7 -15 -22 -15 -34 0 -18 -6 -21 -45 -21
-42 0 -45 2 -45 27 0 15 -4 30 -10 33 -17 10 -11 25 10 25 10 0 25 10 31 22
l12 22 15 -22 c8 -12 23 -22 33 -22z m420 0 c23 0 24 -13 4 -30 -9 -7 -13 -21
-9 -35 5 -20 2 -22 -40 -21 -40 1 -46 4 -46 22 0 12 -7 27 -15 34 -22 18 -18
30 10 30 15 0 29 8 36 22 l12 22 15 -22 c8 -12 23 -22 33 -22z m384 20 c4 -13
15 -20 31 -20 28 0 31 -12 8 -31 -9 -7 -13 -21 -10 -34 5 -19 1 -21 -43 -21
-43 0 -47 2 -43 21 2 12 -4 27 -12 34 -23 19 -20 31 8 31 16 0 27 7 31 20 3
11 10 20 15 20 5 0 12 -9 15 -20z m456 -20 c22 0 25 -13 5 -29 -7 -6 -11 -21
-9 -34 4 -20 1 -22 -41 -22 -40 0 -46 3 -46 21 0 12 -7 27 -15 34 -22 18 -18
30 10 30 15 0 29 8 36 22 l12 22 15 -22 c8 -12 23 -22 33 -22z m425 0 c27 0
31 -12 9 -30 -8 -7 -15 -22 -15 -34 0 -18 -6 -21 -45 -21 -42 0 -45 2 -45 27
0 15 -4 30 -10 33 -17 10 -11 25 10 25 10 0 25 10 31 22 l12 22 15 -22 c8 -12
25 -22 38 -22z m-1886 -210 c24 0 26 -13 5 -30 -10 -8 -13 -21 -8 -38 5 -22 4
-24 -13 -17 -23 10 -44 10 -65 1 -13 -6 -16 -2 -12 17 3 14 -2 30 -11 40 -22
21 -20 27 7 27 16 0 28 9 36 27 l13 28 14 -28 c9 -15 23 -27 34 -27z m408 2
c26 -4 28 -15 7 -32 -9 -8 -13 -21 -9 -36 7 -27 2 -29 -28 -13 -14 8 -23 8
-31 0 -19 -19 -34 -12 -30 12 3 14 -2 29 -11 36 -23 19 -20 31 7 31 16 0 28 9
36 27 l12 27 12 -25 c7 -13 23 -25 35 -27z m419 -2 c25 0 25 -1 10 -18 -10
-10 -17 -31 -17 -46 0 -23 -3 -27 -17 -21 -23 9 -33 9 -55 0 -15 -6 -18 -2
-18 21 0 15 -7 36 -17 46 -15 17 -15 18 11 18 19 0 30 7 38 26 l12 25 13 -25
c9 -18 22 -26 40 -26z m403 8 c0 -4 11 -8 25 -8 28 0 32 -12 10 -30 -8 -7 -15
-24 -15 -37 0 -20 -4 -24 -17 -18 -23 9 -33 9 -57 0 -17 -7 -18 -5 -13 17 5
17 2 30 -8 38 -21 17 -19 30 5 30 12 0 25 10 32 26 11 24 13 25 25 8 7 -10 13
-21 13 -26z m410 0 c0 -4 11 -8 25 -8 28 0 32 -12 10 -30 -8 -7 -15 -24 -15
-37 0 -20 -4 -24 -17 -18 -23 9 -33 9 -57 0 -17 -7 -18 -5 -13 17 5 17 2 30
-8 38 -21 17 -19 30 5 30 12 0 25 10 32 26 11 24 13 25 25 8 7 -10 13 -21 13
-26z m438 -6 c26 -4 28 -15 6 -33 -10 -8 -13 -21 -9 -37 5 -21 3 -23 -12 -17
-22 10 -43 10 -64 1 -13 -6 -16 -2 -12 17 3 14 -2 29 -11 36 -23 19 -20 31 7
31 16 0 28 9 36 27 l12 27 12 -25 c7 -13 23 -25 35 -27z m-1875 -208 l30 -6
-22 -17 c-18 -14 -21 -23 -15 -45 6 -26 5 -27 -15 -17 -12 7 -32 9 -44 5 -27
-8 -33 -5 -29 19 2 10 -4 27 -13 37 -16 18 -16 19 9 26 15 3 32 16 38 27 l11
22 10 -22 c5 -13 23 -25 40 -29z m382 27 c3 -10 17 -22 31 -25 25 -7 26 -8 9
-26 -12 -13 -15 -27 -11 -45 7 -28 4 -30 -23 -13 -15 9 -25 9 -46 0 -26 -12
-27 -12 -20 16 4 20 1 33 -9 42 -19 15 -12 30 14 30 10 0 22 9 25 20 8 25 22
26 30 1z m420 -1 c3 -11 15 -20 25 -20 26 0 33 -15 14 -31 -9 -7 -13 -21 -10
-34 5 -19 1 -21 -43 -21 -43 0 -47 2 -43 21 2 12 -4 27 -12 34 -23 19 -20 31
8 31 16 0 27 7 31 20 3 11 10 20 15 20 5 0 12 -9 15 -20z m420 1 c3 -10 17
-22 31 -25 25 -7 26 -8 9 -26 -12 -13 -15 -27 -11 -45 7 -28 6 -29 -27 -14
-18 8 -30 8 -47 -1 -21 -11 -22 -10 -16 18 5 20 2 33 -8 42 -19 15 -12 30 14
30 10 0 22 9 25 20 8 25 22 26 30 1z m451 -25 c28 -7 31 -21 8 -30 -12 -4 -14
-14 -9 -36 6 -29 6 -30 -18 -19 -18 8 -30 8 -45 0 -29 -15 -30 -14 -24 14 3
16 -2 33 -13 45 -17 18 -16 19 9 26 15 3 32 16 38 27 l11 22 10 -22 c5 -12 20
-24 33 -27z m-1876 -206 c24 0 26 -13 5 -30 -10 -8 -13 -21 -8 -38 5 -22 4
-24 -13 -17 -23 10 -44 10 -65 1 -13 -6 -16 -2 -11 19 3 16 -2 33 -13 45 -17
19 -17 20 3 20 12 0 29 11 39 26 l16 26 14 -26 c8 -15 22 -26 33 -26z m410 0
c24 0 26 -13 5 -30 -10 -8 -13 -21 -8 -38 5 -22 4 -24 -13 -17 -23 10 -44 10
-65 1 -13 -6 -16 -2 -11 19 3 16 -2 33 -12 44 -16 18 -16 19 8 25 14 3 31 16
37 28 12 22 12 22 26 -5 8 -15 22 -27 33 -27z m419 0 c23 0 23 -1 8 -18 -10
-10 -17 -31 -17 -45 0 -29 -9 -34 -28 -15 -9 9 -18 9 -37 0 -23 -11 -25 -10
-25 15 0 15 -7 34 -15 43 -14 16 -13 18 14 23 18 4 32 14 36 28 7 22 7 22 23
-4 11 -17 25 -27 41 -27z m433 0 c20 0 20 -1 5 -18 -10 -10 -17 -31 -17 -46 0
-24 -2 -25 -20 -16 -14 7 -26 8 -39 0 -29 -15 -34 -13 -27 14 4 15 0 28 -9 36
-21 18 -19 27 9 34 14 3 28 16 32 28 6 22 7 21 26 -5 11 -15 29 -27 40 -27z
m410 0 c20 0 20 -1 5 -18 -10 -10 -17 -31 -17 -46 0 -24 -2 -25 -20 -16 -14 7
-26 8 -39 0 -29 -15 -34 -13 -27 14 4 15 0 28 -9 36 -21 18 -19 27 9 34 14 3
28 16 32 28 6 22 7 21 26 -5 11 -15 29 -27 40 -27z m408 0 c24 0 26 -13 5 -30
-10 -8 -13 -21 -8 -38 5 -22 4 -24 -13 -17 -23 10 -44 10 -65 1 -13 -6 -16 -2
-11 19 3 16 -2 33 -13 45 -17 19 -17 20 3 20 12 0 29 11 39 26 l16 26 14 -26
c8 -15 22 -26 33 -26z"/>
<path d="M0 1280 l0 -140 3000 0 3000 0 0 140 0 140 -3000 0 -3000 0 0 -140z"/>
<path d="M0 710 l0 -140 3000 0 3000 0 0 140 0 140 -3000 0 -3000 0 0 -140z"/>
<path d="M0 140 l0 -140 3000 0 3000 0 0 140 0 140 -3000 0 -3000 0 0 -140z"/>
</g>
</svg>
